<?xml version="1.0" encoding="UTF-8"?>
<svg version="1.1" xmlns="http://www.w3.org/2000/svg" width="225" height="225">
<path d="M0 0 C74.25 0 148.5 0 225 0 C225 74.25 225 148.5 225 225 C150.75 225 76.5 225 0 225 C0 150.75 0 76.5 0 0 Z " fill="#278467" transform="translate(0,0)"/>
<path d="M0 0 C74.25 0 148.5 0 225 0 C225 74.25 225 148.5 225 225 C150.75 225 76.5 225 0 225 C0 150.75 0 76.5 0 0 Z M32.25 38.0625 C22.72779092 51.85093609 23.28693221 65.23506513 23.40625 81.41796875 C23.40796379 83.88649945 23.4078927 86.35503196 23.40612793 88.82356262 C23.40777477 93.97687379 23.42636005 99.12974658 23.45800781 104.28295898 C23.49774522 110.86989216 23.50204149 117.45625405 23.49454498 124.04328442 C23.49146824 129.13325685 23.50361996 134.22310219 23.52067566 139.31304359 C23.52767734 141.74138911 23.53083365 144.16974902 23.52998352 146.59810448 C23.53179184 149.99559718 23.55326097 153.39241906 23.58007812 156.78979492 C23.57568222 158.27615448 23.57568222 158.27615448 23.57119751 159.7925415 C23.7094417 171.20970816 27.13015632 181.3835534 34.78125 190.0078125 C41.72108968 196.57790662 51.02934668 201.10502045 60.66567993 201.14044189 C61.59911224 201.14615204 62.53254456 201.15186218 63.4942627 201.15774536 C64.51145386 201.15886322 65.52864502 201.15998108 66.57666016 201.16113281 C67.65358124 201.16609772 68.73050232 201.17106262 69.84005737 201.17617798 C73.40639891 201.19079387 76.97269592 201.1976016 80.5390625 201.203125 C83.02045696 201.20887806 85.50185141 201.21463577 87.98324585 201.22039795 C93.19016731 201.23090709 98.39707333 201.23674996 103.60400391 201.24023438 C110.26175772 201.24492538 116.91927697 201.26972178 123.57697487 201.29820633 C128.70552151 201.31687377 133.83401916 201.32204056 138.96259689 201.32357025 C141.41608169 201.32658933 143.86956578 201.33459257 146.32301712 201.34775543 C149.76449211 201.36489716 153.20547176 201.36291532 156.64697266 201.35644531 C157.65201843 201.3656601 158.65706421 201.37487488 159.69256592 201.3843689 C171.1059134 201.31748555 181.54332164 197.96285975 190.04296875 190.11328125 C198.98950387 180.40371542 201.29780686 169.91533424 201.30639648 157.0168457 C201.31888176 155.40781624 201.31888176 155.40781624 201.33161926 153.76628113 C201.35562396 150.23607706 201.36448033 146.70605817 201.37109375 143.17578125 C201.3800681 140.70729012 201.38919008 138.23879952 201.39845276 135.77030945 C201.41492001 130.59987062 201.42263862 125.42949637 201.42553711 120.2590332 C201.43091495 113.65981673 201.46858128 107.06121404 201.51428127 100.4621706 C201.54414299 95.36351855 201.55126268 90.26501261 201.55226326 85.16628075 C201.55644828 82.73479594 201.56881277 80.30331 201.58978081 77.871912 C201.71532035 62.05455365 201.67834632 48.61770335 190.94921875 35.93359375 C183.63924504 28.68221702 173.71723324 23.90771146 163.34104919 23.85282898 C162.40906204 23.84567368 161.47707489 23.83851837 160.5168457 23.83114624 C159.50122559 23.82845734 158.48560547 23.82576843 157.43920898 23.82299805 C156.3638942 23.81642685 155.28857941 23.80985565 154.18067932 23.80308533 C150.61915007 23.78336335 147.05766302 23.77169058 143.49609375 23.76171875 C142.27784472 23.75764322 141.05959568 23.7535677 139.80443001 23.74936867 C133.35326431 23.72851016 126.90211986 23.71420885 120.45092773 23.70483398 C113.80220041 23.69479233 107.15377755 23.6594014 100.50515652 23.61966228 C95.38085833 23.59345658 90.25663964 23.58513848 85.13228035 23.58155251 C82.68240152 23.57669489 80.23252605 23.5651046 77.78271294 23.54651451 C74.34372602 23.52204546 70.90560089 23.52310302 67.46655273 23.5300293 C66.46510223 23.51721924 65.46365173 23.50440918 64.43185425 23.49121094 C51.98437142 23.5820281 40.37967258 28.49611805 32.25 38.0625 Z " fill="#FEFEFE" transform="translate(0,0)"/>
<path d="M0 0 C3.62498334 -0.02893932 7.24993713 -0.04677792 10.875 -0.0625 C12.42380859 -0.07506836 12.42380859 -0.07506836 14.00390625 -0.08789062 C14.99003906 -0.09111328 15.97617188 -0.09433594 16.9921875 -0.09765625 C18.35899658 -0.10551147 18.35899658 -0.10551147 19.75341797 -0.11352539 C22 0 22 0 24 1 C24 1.99 24 2.98 24 4 C24.94875 3.34 25.8975 2.68 26.875 2 C31.45531328 -0.59737278 35.85208087 -0.99132226 41 0 C44.125 2.0625 44.125 2.0625 46 5 C46.53603554 9.44143734 46.50031654 11.24952518 44 15 C44.495 15.350625 44.99 15.70125 45.5 16.0625 C47.82091376 19.06034694 47.45113866 21.32644233 47 25 C45.13291495 27.36497439 43.67938569 28.66030715 41 30 C39.23229673 30.12240135 37.45939538 30.17551153 35.6875 30.1875 C34.74261719 30.20167969 33.79773438 30.21585938 32.82421875 30.23046875 C29.85593118 29.98824335 27.69132835 29.24026607 25 28 C24.67 28.99 24.34 29.98 24 31 C22.0625 31.75 22.0625 31.75 20 32 C18 31 18 31 17 28 C16.01 28.66 15.02 29.32 14 30 C9.74397179 30.6258865 4.95189996 31.19444625 1.16796875 28.87890625 C-0.1875 27.5 -0.1875 27.5 -2 25 C-0.75 23.4375 -0.75 23.4375 1 22 C2.75 22.3125 2.75 22.3125 5 23 C7.33300933 23.03888349 9.66709801 23.0448635 12 23 C12.33 21.35 12.66 19.7 13 18 C10.06753341 16.5337667 7.32233257 17.02912611 4.09375 17.16015625 C2 17 2 17 0 15 C-0.14497985 12.41935871 -0.18677545 9.95056116 -0.125 7.375 C-0.11597656 6.66859375 -0.10695313 5.9621875 -0.09765625 5.234375 C-0.07407603 3.48943902 -0.03820461 1.74467705 0 0 Z " fill="#257A66" transform="translate(90,112)"/>
<path d="M0 0 C1.94824219 0.85107422 1.94824219 0.85107422 4 2 C4.828125 4.3828125 4.828125 4.3828125 5.25 7.125 C5.47429687 8.49011719 5.47429687 8.49011719 5.703125 9.8828125 C5.80109375 10.58148438 5.8990625 11.28015625 6 12 C6.33 12 6.66 12 7 12 C7.04678391 25.83015566 7.08188702 39.66029899 7.10362434 53.49051762 C7.11405761 59.91257028 7.12820862 66.33456975 7.15087891 72.7565918 C7.17262335 78.9551947 7.18457207 85.15374646 7.18975449 91.35238457 C7.19344734 93.71623985 7.20065854 96.08009237 7.21146011 98.44392586 C7.2259961 101.7570308 7.22797703 105.0699249 7.22705078 108.38305664 C7.23424133 109.35841873 7.24143188 110.33378082 7.24884033 111.33869934 C7.23275827 116.66133053 6.59781014 120.93609605 5 126 C5.20625 126.86625 5.4125 127.7325 5.625 128.625 C5.74875 129.40875 5.8725 130.1925 6 131 C4.69254251 132.68704193 3.35827971 134.35360035 2 136 C2 136.845625 2 137.69125 2 138.5625 C2 141 2 141 0.1875 143.25 C-2 145 -2 145 -5 146 C-5.33 147.98 -5.66 149.96 -6 152 C-7.01320312 152.05607422 -7.01320312 152.05607422 -8.046875 152.11328125 C-8.93890625 152.17902344 -9.8309375 152.24476563 -10.75 152.3125 C-12.07257813 152.39951172 -12.07257813 152.39951172 -13.421875 152.48828125 C-16.33705574 153.06690046 -17.72169878 154.15259488 -20 156 C-20.66 156 -21.32 156 -22 156 C-22 156.66 -22 157.32 -22 158 C-24.64 158 -27.28 158 -30 158 C-30 158.33 -30 158.66 -30 159 C-34.98342543 160.02224111 -39.92545485 160.3632306 -45 160 C-45.33 159.67 -45.66 159.34 -46 159 C-51.58330702 158.11664845 -56.9884379 157.86806751 -62.6315918 157.91821289 C-63.45378204 157.92127945 -64.27597229 157.92434601 -65.12307739 157.92750549 C-66.8936176 157.9346144 -68.66414994 157.94397958 -70.43466759 157.95540047 C-73.23849895 157.97290143 -76.0422725 157.98312393 -78.84614563 157.99131775 C-86.81293185 158.01568168 -94.77963941 158.05143788 -102.74633789 158.09594727 C-107.63143721 158.12273474 -112.51649235 158.13977181 -117.40165138 158.15081596 C-119.25919042 158.15701776 -121.11672085 158.16701308 -122.97421837 158.18089485 C-125.56840012 158.20012234 -128.16234836 158.20700816 -130.7565918 158.21118164 C-131.52085983 158.21994324 -132.28512787 158.22870483 -133.07255554 158.23773193 C-137.19255239 158.23016957 -140.27920317 157.76667885 -144 156 C-145.65919896 155.63128912 -147.3247643 155.28718326 -149 155 C-149 154.34 -149 153.68 -149 153 C-150.07314453 152.83177734 -150.07314453 152.83177734 -151.16796875 152.66015625 C-154.19115998 151.95543995 -156.56322688 150.86712202 -159.3125 149.4375 C-160.19550781 148.98246094 -161.07851562 148.52742187 -161.98828125 148.05859375 C-162.65214844 147.70925781 -163.31601563 147.35992187 -164 147 C-164 145.68 -164 144.36 -164 143 C-164.66 143 -165.32 143 -166 143 C-166 142.34 -166 141.68 -166 141 C-166.99 141 -167.98 141 -169 141 C-170.125 138.6875 -170.125 138.6875 -171 136 C-170.34 135.01 -169.68 134.02 -169 133 C-168.6596875 133.58007812 -168.319375 134.16015625 -167.96875 134.7578125 C-162.22740488 144.01115065 -154.63902278 149.46775873 -144.16172218 152.5388298 C-141.82573782 153.03717616 -139.72233902 153.13166396 -137.33432007 153.14044189 C-136.40088776 153.14615204 -135.46745544 153.15186218 -134.5057373 153.15774536 C-133.48854614 153.15886322 -132.47135498 153.15998108 -131.42333984 153.16113281 C-130.34641876 153.16609772 -129.26949768 153.17106262 -128.15994263 153.17617798 C-124.59360109 153.19079387 -121.02730408 153.1976016 -117.4609375 153.203125 C-114.97954304 153.20887806 -112.49814859 153.21463577 -110.01675415 153.22039795 C-104.80983269 153.23090709 -99.60292667 153.23674996 -94.39599609 153.24023438 C-87.73824228 153.24492538 -81.08072303 153.26972178 -74.42302513 153.29820633 C-69.29447849 153.31687377 -64.16598084 153.32204056 -59.03740311 153.32357025 C-56.58391831 153.32658933 -54.13043422 153.33459257 -51.67698288 153.34775543 C-48.23550789 153.36489716 -44.79452824 153.36291532 -41.35302734 153.35644531 C-40.34798157 153.3656601 -39.34293579 153.37487488 -38.30743408 153.3843689 C-27.04662134 153.31837941 -16.61734937 150.04933655 -8.1796875 142.3359375 C0.3352336 132.96524544 2.30833884 122.24615198 2.25878906 109.95336914 C2.2622937 108.87425766 2.26579834 107.79514618 2.26940918 106.68333435 C2.27817569 103.13387524 2.27239479 99.58461722 2.265625 96.03515625 C2.2669732 93.55708274 2.26891504 91.07900949 2.27142334 88.60093689 C2.27436781 83.41370113 2.27009903 78.22653437 2.26074219 73.03930664 C2.24935412 66.40403015 2.25590746 59.76891559 2.26788712 53.13364506 C2.27512903 48.01800832 2.27280696 42.90240969 2.26763153 37.78677177 C2.26630118 35.34084491 2.26792114 32.89491454 2.27259064 30.44899178 C2.27769348 27.02457701 2.26989247 23.60042099 2.25878906 20.17602539 C2.26486176 18.67249008 2.26486176 18.67249008 2.27105713 17.13858032 C2.23512818 11.12968772 1.50665907 5.82172448 0 0 Z " fill="#E3F0F3" transform="translate(198,47)"/>
<path d="M0 0 C1.51400391 0.01740234 1.51400391 0.01740234 3.05859375 0.03515625 C4.07050781 0.04417969 5.08242187 0.05320312 6.125 0.0625 C7.29869141 0.07990234 7.29869141 0.07990234 8.49609375 0.09765625 C8.49609375 0.75765625 8.49609375 1.41765625 8.49609375 2.09765625 C9.17671875 1.74703125 9.85734375 1.39640625 10.55859375 1.03515625 C15.14518654 -0.42864996 19.01490098 0.60392533 23.49609375 2.09765625 C23.62109375 4.97265625 23.62109375 4.97265625 23.49609375 8.09765625 C22.83609375 8.75765625 22.17609375 9.41765625 21.49609375 10.09765625 C19.11328125 10.07421875 19.11328125 10.07421875 16.37109375 9.72265625 C15.46101563 9.61179687 14.5509375 9.5009375 13.61328125 9.38671875 C12.91460937 9.29132813 12.2159375 9.1959375 11.49609375 9.09765625 C11.82609375 10.08765625 12.15609375 11.07765625 12.49609375 12.09765625 C14.75397266 13.27147749 14.75397266 13.27147749 17.43359375 14.16015625 C22.30326864 15.90483114 22.30326864 15.90483114 24.49609375 18.09765625 C24.27419594 24.19984603 24.27419594 24.19984603 21.87109375 26.97265625 C18.78311521 28.43538293 15.87883861 28.77239232 12.49609375 29.09765625 C13.15609375 29.75765625 13.81609375 30.41765625 14.49609375 31.09765625 C6.98840144 30.48227163 6.98840144 30.48227163 4.49609375 28.53515625 C4.16609375 28.06078125 3.83609375 27.58640625 3.49609375 27.09765625 C3.16609375 27.75765625 2.83609375 28.41765625 2.49609375 29.09765625 C0.4296875 29.51171875 0.4296875 29.51171875 -2.06640625 29.72265625 C-2.89269531 29.79742187 -3.71898438 29.8721875 -4.5703125 29.94921875 C-5.52744141 30.02269531 -5.52744141 30.02269531 -6.50390625 30.09765625 C-7.16390625 28.11765625 -7.82390625 26.13765625 -8.50390625 24.09765625 C-8.17390625 23.76765625 -7.84390625 23.43765625 -7.50390625 23.09765625 C-7.26689386 20.23887716 -7.08171443 17.39882328 -6.94140625 14.53515625 C-6.89822266 13.72884766 -6.85503906 12.92253906 -6.81054688 12.09179688 C-6.70415363 10.0939682 -6.60349737 8.09583555 -6.50390625 6.09765625 C-7.16390625 5.76765625 -7.82390625 5.43765625 -8.50390625 5.09765625 C-8.50390625 4.10765625 -8.50390625 3.11765625 -8.50390625 2.09765625 C-7.29734375 1.88109375 -7.29734375 1.88109375 -6.06640625 1.66015625 C-3.22600562 1.03665367 -2.88832958 0.11264936 0 0 Z " fill="#378F62" transform="translate(88.50390625,71.90234375)"/>
<path d="M0 0 C0.33 0 0.66 0 1 0 C1.07026651 13.90870629 1.12287439 27.81738481 1.15543652 41.72623253 C1.17106761 48.18522692 1.19225942 54.64410175 1.22631836 61.10302734 C1.25900261 67.34055374 1.27687224 73.57796539 1.28463173 79.81557083 C1.29015894 82.19091217 1.30095215 84.5662475 1.31719017 86.94153976 C1.33908457 90.27805727 1.34196186 93.61410539 1.34057617 96.95068359 C1.351362 97.9246106 1.36214783 98.8985376 1.3732605 99.90197754 C1.32265076 111.22261605 -2.11166746 121.62402088 -9.88671875 130.04296875 C-19.54881085 138.94576088 -29.97463986 141.32121026 -42.82226562 141.22705078 C-43.87681946 141.22734283 -44.93137329 141.22763489 -46.0178833 141.22793579 C-49.48075782 141.22654976 -52.94341337 141.21102271 -56.40625 141.1953125 C-58.8162016 141.19157979 -61.22615473 141.18873404 -63.6361084 141.18673706 C-69.96211985 141.17912094 -76.28803868 141.15948978 -82.61401367 141.1373291 C-89.07599637 141.11682711 -95.53799411 141.10772604 -102 141.09765625 C-114.66670606 141.07624201 -127.33334809 141.04251792 -140 141 C-140 140.67 -140 140.34 -140 140 C-139.13794952 139.9845388 -139.13794952 139.9845388 -138.25848389 139.96876526 C-132.22268463 139.8597415 -126.1870063 139.74523456 -120.15136719 139.62768555 C-117.90529943 139.58464075 -115.65920531 139.54294742 -113.41308594 139.50268555 C-110.16593515 139.44423683 -106.91891338 139.38076626 -103.671875 139.31640625 C-102.18986603 139.29133751 -102.18986603 139.29133751 -100.67791748 139.26576233 C-95.76156678 139.16362844 -90.8978583 138.93216721 -86 138.48632812 C-80.096725 137.96116028 -74.25170809 137.8713993 -68.328125 137.90234375 C-66.75547882 137.90446617 -66.75547882 137.90446617 -65.15106201 137.90663147 C-61.85067714 137.91216324 -58.55036385 137.92470228 -55.25 137.9375 C-52.99218849 137.94252384 -50.7343759 137.94708519 -48.4765625 137.95117188 C-42.98435118 137.96211018 -37.49218071 137.9787785 -32 138 C-31.67 137.01 -31.34 136.02 -31 135 C-30.01 135.33 -29.02 135.66 -28 136 C-25.03616933 135.27102226 -25.03616933 135.27102226 -23.5625 133.5 C-21.72689888 131.73782293 -20.46135347 131.47639099 -18 131 C-17.34 130.67 -16.68 130.34 -16 130 C-16 128.02 -16 126.04 -16 124 C-13.69 124 -11.38 124 -9 124 C-7.85948394 119.01716284 -6.77774134 114.05531868 -6 109 C-5.01 108.67 -4.02 108.34 -3 108 C-2.03000054 101.58417349 -1.92304453 95.39431218 -2 88.9140625 C-2.0642798 77.69164387 -1.86954231 66.49084924 -1.5625 55.2734375 C-1.54043488 54.464795 -1.51836975 53.6561525 -1.49563599 52.82300568 C-1.35885237 47.85226013 -1.21663818 42.88168076 -1.07287598 37.91113281 C-0.9495474 33.61921568 -0.83044975 29.32718104 -0.7109375 25.03515625 C-0.47797003 16.68998742 -0.24051814 8.34495462 0 0 Z " fill="#175A67" transform="translate(200,60)"/>
<path d="M0 0 C1.73305097 0.00747524 3.46611048 0.01316209 5.19917297 0.01715088 C9.72516884 0.03230642 14.25063812 0.0714991 18.77642822 0.1159668 C23.40882243 0.1571391 28.04130306 0.17520844 32.67382812 0.1953125 C41.7372085 0.23800494 50.80020081 0.30613147 59.86328125 0.390625 C59.53328125 1.050625 59.20328125 1.710625 58.86328125 2.390625 C52.95054969 3.50623473 47.18213929 3.38764633 41.19140625 3.35546875 C39.18880321 3.34854275 37.18619993 3.34164217 35.18359375 3.33569336 C33.81053903 3.33067394 32.43748963 3.32385701 31.06445312 3.31518555 C23.91418152 3.27131357 16.9315444 3.23976677 9.86328125 4.390625 C9.36828125 3.400625 9.36828125 3.400625 8.86328125 2.390625 C7.13078125 2.9165625 7.13078125 2.9165625 5.36328125 3.453125 C0.87393742 4.6034195 -2.59194843 4.09584798 -7.13671875 3.390625 C-7.79671875 3.720625 -8.45671875 4.050625 -9.13671875 4.390625 C-9.46671875 5.380625 -9.79671875 6.370625 -10.13671875 7.390625 C-14.88671875 6.640625 -14.88671875 6.640625 -17.13671875 4.390625 C-17.46671875 5.050625 -17.79671875 5.710625 -18.13671875 6.390625 C-19.45671875 6.390625 -20.77671875 6.390625 -22.13671875 6.390625 C-22.46671875 7.050625 -22.79671875 7.710625 -23.13671875 8.390625 C-25.12898044 8.67982428 -27.12394057 8.96327051 -29.12890625 9.14453125 C-31.34001143 9.3481313 -31.34001143 9.3481313 -34.13671875 10.390625 C-34.13671875 12.040625 -34.13671875 13.690625 -34.13671875 15.390625 C-35.10609375 15.7825 -36.07546875 16.174375 -37.07421875 16.578125 C-40.35133688 18.03884037 -40.35133688 18.03884037 -40.82421875 20.890625 C-40.97890625 22.128125 -40.97890625 22.128125 -41.13671875 23.390625 C-42.57421875 25.203125 -42.57421875 25.203125 -44.13671875 26.390625 C-44.79671875 26.390625 -45.45671875 26.390625 -46.13671875 26.390625 C-44.15671875 29.360625 -44.15671875 29.360625 -42.13671875 32.390625 C-43.12671875 32.885625 -43.12671875 32.885625 -44.13671875 33.390625 C-44.46671875 34.380625 -44.79671875 35.370625 -45.13671875 36.390625 C-45.79671875 36.390625 -46.45671875 36.390625 -47.13671875 36.390625 C-47.12511719 37.70417969 -47.11351562 39.01773438 -47.1015625 40.37109375 C-47.09218047 42.10676941 -47.08308071 43.84244661 -47.07421875 45.578125 C-47.06583984 46.44244141 -47.05746094 47.30675781 -47.04882812 48.19726562 C-47.03275063 52.39349269 -47.06112837 56.29999386 -48.13671875 60.390625 C-47.47671875 60.390625 -46.81671875 60.390625 -46.13671875 60.390625 C-45.99455142 67.42000946 -46.20009829 74.43140971 -46.51171875 81.453125 C-46.54257568 82.2985083 -46.57343262 83.1438916 -46.60522461 84.01489258 C-46.90446653 90.15837278 -46.90446653 90.15837278 -49.13671875 92.390625 C-50.06267666 79.82405332 -50.34935287 67.2240848 -50.47875977 54.62695312 C-50.50052743 52.86103159 -50.5311192 51.09519417 -50.57104492 49.32958984 C-50.8750669 35.28085358 -49.58776125 23.5151276 -40.07421875 12.3203125 C-28.60639849 0.89873345 -15.27476568 -0.19510395 0 0 Z " fill="#62B156" transform="translate(74.13671875,23.609375)"/>
<path d="M0 0 C4.54054054 2.08108108 4.54054054 2.08108108 6 5 C6.25797575 8.95562822 6.09440189 11.59659693 4 15 C4.495 15.53625 4.99 16.0725 5.5 16.625 C7.44280469 19.70110743 7.52224493 21.41889189 7 25 C5.1329009 27.30275556 3.64352259 28.67823871 1 30 C-3.6730496 30.43008598 -7.74351106 30.56413789 -12.0625 28.625 C-14 27 -14 27 -15 25 C-15.46829268 17.62439024 -15.46829268 17.62439024 -13.5 15 C-13.005 14.67 -12.51 14.34 -12 14 C-12.515625 13.46375 -13.03125 12.9275 -13.5625 12.375 C-15 10 -15 10 -15 7 C-12.56289533 -0.31131401 -6.85767102 -1.05598195 0 0 Z " fill="#DBEBE3" transform="translate(77,112)"/>
<path d="M0 0 C3.12177233 1.68287927 5.39137035 3.7827407 7 7 C7.63265287 12.10641248 7.90754125 15.789945 4.75 20 C-0.07897627 23.51198274 -2.85396743 24.63579647 -9 24 C-12.70390021 21.97333762 -14.65363011 20.51955484 -17 17 C-17.5965522 12.42901563 -17.52885741 8.26925778 -15.75 4 C-11.55756224 -0.79135744 -5.99579669 -0.95366215 0 0 Z " fill="#E3F3F1" transform="translate(134,76)"/>
<path d="M0 0 C6.27 0 12.54 0 19 0 C19 1.98 19 3.96 19 6 C14.71 6 10.42 6 6 6 C6 7.65 6 9.3 6 11 C6.59167969 10.95359375 7.18335937 10.9071875 7.79296875 10.859375 C11.76361375 10.67800785 14.41566956 10.72572244 18.0625 12.4375 C20.52572055 15.69530782 20.65145541 17.80125953 20.43359375 21.80859375 C19.79893065 25.01621535 18.34911827 26.78906516 16 29 C12.05061818 30.97469091 7.29329615 30.58151274 3 30 C0.6315599 28.558779 -0.34368027 27.28457894 -2 25 C-0.75 23.4375 -0.75 23.4375 1 22 C2.75 22.3125 2.75 22.3125 5 23 C7.33300933 23.03888349 9.66709801 23.0448635 12 23 C12.33 21.35 12.66 19.7 13 18 C10.06753341 16.5337667 7.32233257 17.02912611 4.09375 17.16015625 C2 17 2 17 0 15 C-0.14547834 12.41048555 -0.18649052 9.95814609 -0.125 7.375 C-0.08375 4.94125 -0.0425 2.5075 0 0 Z " fill="#E8F3F3" transform="translate(90,112)"/>
<path d="M0 0 C6.6 0 13.2 0 20 0 C20 6 20 6 18.6875 7.6796875 C17.125 8.78645833 15.5625 9.89322917 14 11 C14.804375 11.804375 15.60875 12.60875 16.4375 13.4375 C20 17 20 17 20.3125 20.25 C19.95354121 24.55750548 19.00888412 25.99111588 16 29 C12.29426829 30.85286586 8.04408469 30.46377118 4 30 C1.45267666 28.9461074 0.09349284 27.87312517 -2 26 C-2 25.34 -2 24.68 -2 24 C0.5 22.375 0.5 22.375 3 21 C3.99 21.66 4.98 22.32 6 23 C9.12521833 23.16699232 9.12521833 23.16699232 12 23 C12.33 21.35 12.66 19.7 13 18 C10.36 17.67 7.72 17.34 5 17 C4.1875 14.8125 4.1875 14.8125 4 12 C6.4375 9.1875 6.4375 9.1875 9 7 C6.03 6.67 3.06 6.34 0 6 C0 4.02 0 2.04 0 0 Z " fill="#DEEEEF" transform="translate(143,112)"/>
<path d="M0 0 C0 1.98 0 3.96 0 6 C3.63 6 7.26 6 11 6 C9.7260411 8.03833424 8.38938077 10.03852126 7 12 C6.34 12 5.68 12 5 12 C5.33 13.65 5.66 15.3 6 17 C6.928125 16.938125 7.85625 16.87625 8.8125 16.8125 C12 17 12 17 13.875 18.5 C14.24625 18.995 14.6175 19.49 15 20 C14.34 21.32 13.68 22.64 13 24 C7.4744186 24.25116279 7.4744186 24.25116279 4.875 22.875 C3.946875 22.441875 3.946875 22.441875 3 22 C0.76529595 22.78309467 0.76529595 22.78309467 -1 24 C1.77280706 27.08089673 4.06326356 28.68775452 8 30 C7.67 30.66 7.34 31.32 7 32 C5.08364783 32.05423638 3.16685075 32.09289963 1.25 32.125 C0.18265625 32.14820313 -0.8846875 32.17140625 -1.984375 32.1953125 C-4.92470106 32.00487687 -6.52361878 31.52670104 -9 30 C-9 29.34 -9 28.68 -9 28 C-8.505 27.608125 -8.01 27.21625 -7.5 26.8125 C-5.67508365 24.94581226 -5.67508365 24.94581226 -5.625 21.5625 C-6.00774336 17.92643811 -6.51807907 16.5853343 -9 14 C-8.34 13.34 -7.68 12.68 -7 12 C-6.89957325 9.41510276 -7.06882451 6.89387164 -7.22265625 4.3125 C-7.14917969 3.549375 -7.07570312 2.78625 -7 2 C-4 0 -4 0 0 0 Z " fill="#1C746D" transform="translate(142,112)"/>
<path d="M0 0 C8.83086516 -0.77162899 8.83086516 -0.77162899 13.125 2.0625 C15.44855307 5.70273314 15.55047025 7.75351522 15 12 C14.01 13.485 14.01 13.485 13 15 C13.7425 15.5259375 13.7425 15.5259375 14.5 16.0625 C16.82091376 19.06034694 16.45113866 21.32644233 16 25 C14.13291495 27.36497439 12.67938569 28.66030715 10 30 C4.68809099 30.59876591 0.42078551 30.89147326 -4.1875 28 C-6.61956668 23.97451032 -6.39315009 21.63917105 -6 17 C-4.68 16.67 -3.36 16.34 -2 16 C-1.62875 17.134375 -1.2575 18.26875 -0.875 19.4375 C-0.12327282 21.37605894 -0.12327282 21.37605894 1 23 C4.21273912 24.04905767 5.9374046 24.5312977 9 23 C9 21.68 9 20.36 9 19 C6.36 18.34 3.72 17.68 1 17 C1.33 15.68 1.66 14.36 2 13 C3.98 13 5.96 13 8 13 C8 11.02 8 9.04 8 7 C5.50935112 6.31292445 3.62113708 6 1 6 C-0.0625 4.125 -0.0625 4.125 -1 2 C-0.67 1.34 -0.34 0.68 0 0 Z " fill="#E3F1F1" transform="translate(121,112)"/>
<path d="M0 0 C3 1 3 1 5 2 C4.34 3.32 3.68 4.64 3 6 C-0.3 5.67 -3.6 5.34 -7 5 C-6.67 5.99 -6.34 6.98 -6 8 C-3.74212109 9.17382124 -3.74212109 9.17382124 -1.0625 10.0625 C3.80717489 11.80717489 3.80717489 11.80717489 6 14 C5.86895515 17.60373332 5.74035058 20.08196528 3.4375 22.9375 C-0.04047399 24.45353995 -3.30264072 24.57107727 -7 24 C-10 22.5 -10 22.5 -12 21 C-11.67 19.68 -11.34 18.36 -11 17 C-10.484375 17.165 -9.96875 17.33 -9.4375 17.5 C-6.26636124 18.15049 -3.22781666 18.0620734 0 18 C0 17.34 0 16.68 0 16 C-0.69867188 15.74605469 -1.39734375 15.49210937 -2.1171875 15.23046875 C-3.48230469 14.71419922 -3.48230469 14.71419922 -4.875 14.1875 C-5.77992187 13.85105469 -6.68484375 13.51460937 -7.6171875 13.16796875 C-10 12 -10 12 -12 9 C-12.4957593 5.77756457 -12.28615881 4.4411615 -10.5 1.6875 C-7.06100276 -0.63382314 -3.97669936 -0.55122565 0 0 Z " fill="#E2F4EA" transform="translate(107,76)"/>
<path d="M0 0 C0.66 0.33 1.32 0.66 2 1 C2.625 3.0625 2.625 3.0625 3 5 C3.94875 4.79375 4.8975 4.5875 5.875 4.375 C7.421875 4.189375 7.421875 4.189375 9 4 C9.66 4.66 10.32 5.32 11 6 C10.875 9 10.875 9 10 12 C8.0625 13.3125 8.0625 13.3125 6 14 C5.01 14.495 5.01 14.495 4 15 C6.31 15.66 8.62 16.32 11 17 C11.33 18.65 11.66 20.3 12 22 C9 24 9 24 5.9375 23.75 C3 23 3 23 1 21 C0.42440161 19.49903768 -0.09130417 17.97443718 -0.5625 16.4375 C-1.33211636 13.4574868 -1.33211636 13.4574868 -3 11 C-3.47524752 3.63366337 -3.47524752 3.63366337 -1.5 1 C-1.005 0.67 -0.51 0.34 0 0 Z " fill="#DBEBE9" transform="translate(119,113)"/>
<path d="M0 0 C1.65 0.33 3.3 0.66 5 1 C5 2.98 5 4.96 5 7 C4.01 7 3.02 7 2 7 C1.34 8.32 0.68 9.64 0 11 C0.99 11 1.98 11 3 11 C3.66 11 4.32 11 5 11 C5.33 13.97 5.66 16.94 6 20 C5.34 20 4.68 20 4 20 C4.33 20.99 4.66 21.98 5 23 C4.01 23.99 3.02 24.98 2 26 C2.99 26.66 3.98 27.32 5 28 C4.67 29.32 4.34 30.64 4 32 C3.443125 31.814375 2.88625 31.62875 2.3125 31.4375 C-0.44113971 30.91654114 -2.26289575 31.42711771 -5 32 C-7.33301986 32.03824623 -9.66711508 32.04574284 -12 32 C-11.46375 31.7525 -10.9275 31.505 -10.375 31.25 C-4.83772107 28.52338331 -4.83772107 28.52338331 -1 24 C-0.41585298 20.62693382 -0.41585298 20.62693382 -1 17 C-2.81871731 14.86844211 -4.65987943 13.60883289 -7 12 C-5.38405168 9.95880212 -3.7143618 7.95927063 -2 6 C-1.34 6 -0.68 6 0 6 C0 4.02 0 2.04 0 0 Z " fill="#1F6D72" transform="translate(163,112)"/>
<path d="M0 0 C2.9375 0.8125 2.9375 0.8125 6 2 C6.33 2.99 6.66 3.98 7 5 C6.34 5.4125 5.68 5.825 5 6.25 C4.01 7.11625 4.01 7.11625 3 8 C3 9.32 3 10.64 3 12 C7.455 12.99 7.455 12.99 12 14 C12.66 12.35 13.32 10.7 14 9 C14.66 9.33 15.32 9.66 16 10 C16.625 13.0625 16.625 13.0625 17 16 C12.92159635 19.26272292 9.40418297 19.4466597 4.37890625 19.296875 C1.3124821 18.91420138 -0.63792881 17.98109196 -3 16 C-4.59331863 12.81336274 -4.52859007 9.45986229 -4 6 C-2 3.625 -2 3.625 0 2 C0 1.34 0 0.68 0 0 Z " fill="#DCF1E9" transform="translate(66,123)"/>
<path d="M0 0 C1.18936456 0.01439243 1.18936456 0.01439243 2.40275669 0.02907562 C3.30996967 0.03756027 4.21718266 0.04604492 5.15188694 0.05478668 C6.65660053 0.07656227 6.65660053 0.07656227 8.19171238 0.09877777 C9.76719097 0.11559853 9.76719097 0.11559853 11.37449741 0.13275909 C13.66356439 0.15783702 15.95260671 0.18524629 18.24162197 0.21466827 C21.85894556 0.26102477 25.47628946 0.30117558 29.09370518 0.3396225 C38.07993057 0.43643785 47.06602036 0.54410212 56.05212498 0.65145111 C63.6378356 0.74167392 71.22357072 0.82781153 78.80939007 0.90839386 C82.38252586 0.94807419 85.95555144 0.99385665 89.52861118 1.03981781 C91.70927706 1.06367793 93.88994609 1.08725313 96.07061863 1.11049652 C97.07173679 1.12501358 98.07285496 1.13953064 99.10431004 1.15448761 C100.46935925 1.16721458 100.46935925 1.16721458 101.86198521 1.18019867 C102.65527194 1.18979362 103.44855867 1.19938858 104.2658844 1.20927429 C106.27986751 1.22852475 106.27986751 1.22852475 108.19586277 0.10463715 C110.52884937 0.06441324 112.86292943 0.06143468 115.19586277 0.10463715 C115.69086277 1.58963715 115.69086277 1.58963715 116.19586277 3.10463715 C113.55586277 3.10463715 110.91586277 3.10463715 108.19586277 3.10463715 C108.19586277 3.43463715 108.19586277 3.76463715 108.19586277 4.10463715 C103.21243734 5.12687826 98.27040792 5.46786775 93.19586277 5.10463715 C92.70086277 4.60963715 92.70086277 4.60963715 92.19586277 4.10463715 C86.59688131 3.21805691 81.17577865 2.97287349 75.51666355 3.02285004 C74.27614986 3.02744987 74.27614986 3.02744987 73.01057529 3.03214264 C71.23020657 3.03925093 69.44984567 3.04861578 67.6694994 3.06003761 C64.85389019 3.07752497 62.03833842 3.08775608 59.22268772 3.0959549 C51.22280558 3.12033637 43.22300191 3.1561883 35.22320652 3.20058441 C30.31866937 3.22730027 25.41417586 3.24438265 20.50957966 3.25545311 C18.64118797 3.26167261 16.772805 3.27168994 14.90445423 3.285532 C12.30247703 3.30465677 9.70073259 3.31163052 7.0986948 3.31581879 C6.32364094 3.32458038 5.54858707 3.33334198 4.75004673 3.34236908 C-0.57623891 3.33253547 -0.57623891 3.33253547 -2.80413723 1.10463715 C-1.80413723 0.10463715 -1.80413723 0.10463715 0 0 Z " fill="#F0EFF1" transform="translate(59.804137229919434,201.8953628540039)"/>
<path d="M0 0 C0.99 0 1.98 0 3 0 C2.67501022 1.09150864 2.35002045 2.18301727 2.0151825 3.30760193 C0.7082855 8.57114733 0.72697056 13.68002354 0.75708008 19.07836914 C0.75518173 20.16069321 0.75328339 21.24301727 0.75132751 22.35813904 C0.74763856 25.9172197 0.75829742 29.47609389 0.76953125 33.03515625 C0.77072425 35.51802039 0.77117596 38.00088498 0.7709198 40.48374939 C0.77248143 45.67938068 0.78074687 50.87494276 0.79418945 56.07055664 C0.81118756 62.72394016 0.8150033 69.37720931 0.81424427 76.03061771 C0.81451643 81.15474672 0.82000487 86.27885921 0.82724571 91.40298271 C0.83042318 93.85614332 0.83239763 96.30930579 0.83313942 98.76246834 C0.83531225 102.19201968 0.84407672 105.62149125 0.85473633 109.05102539 C0.85405655 110.56534653 0.85405655 110.56534653 0.85336304 112.11026001 C0.87635931 117.18103302 1.12862312 122.00219737 2 127 C1.01 126.67 0.02 126.34 -1 126 C-1.36093104 123.85529407 -1.71357589 121.70919203 -2.0625 119.5625 C-2.25972656 118.36753906 -2.45695312 117.17257813 -2.66015625 115.94140625 C-2.77230469 114.97074219 -2.88445313 114.00007813 -3 113 C-2.505 112.505 -2.505 112.505 -2 112 C-1.90994593 108.84548091 -1.88513318 105.7129664 -1.90234375 102.55834961 C-1.90380402 101.56643616 -1.90526428 100.57452271 -1.9067688 99.55255127 C-1.91058589 97.38956649 -1.91671396 95.22658488 -1.92483521 93.06361198 C-1.9375539 89.63782503 -1.94410366 86.21207664 -1.94897461 82.78627014 C-1.96237795 74.27013168 -1.9864914 65.75402941 -2.01037598 57.23791504 C-2.03013088 50.05688749 -2.04576748 42.87587384 -2.05593872 35.69482613 C-2.06240897 32.32475941 -2.07492204 28.95474959 -2.08764648 25.58470154 C-2.09128142 23.50560556 -2.09463285 21.42650906 -2.09765625 19.34741211 C-2.10282257 18.41461929 -2.10798889 17.48182648 -2.11331177 16.52076721 C-2.11373538 11.2555454 -1.84733271 6.20188018 -1 1 C-0.67 0.67 -0.34 0.34 0 0 Z " fill="#EFFFF0" transform="translate(24,48)"/>
<path d="M0 0 C1.875 0.3828125 1.875 0.3828125 3.875 2.0078125 C5.17118989 5.0862635 5.35788863 7.07157618 4.875 10.3828125 C3.25 12.7578125 3.25 12.7578125 0.875 14.3828125 C-2.7967087 14.99476395 -4.41313568 14.86987756 -7.5 12.7578125 C-9.6003727 9.68803702 -9.65793835 8.03724689 -9.125 4.3828125 C-7.23887124 -0.09674329 -4.45999274 -0.24595548 0 0 Z " fill="#347F67" transform="translate(131.125,80.6171875)"/>
<path d="M0 0 C0.99 0.99 1.98 1.98 3 3 C2.01 3.495 2.01 3.495 1 4 C0.67 4.99 0.34 5.98 0 7 C-0.66 7 -1.32 7 -2 7 C-1.98839844 8.31355469 -1.97679687 9.62710938 -1.96484375 10.98046875 C-1.95546172 12.71614441 -1.94636196 14.45182161 -1.9375 16.1875 C-1.92912109 17.05181641 -1.92074219 17.91613281 -1.91210938 18.80664062 C-1.89603188 23.00286769 -1.92440962 26.90936886 -3 31 C-2.34 31 -1.68 31 -1 31 C-0.85783267 38.02938446 -1.06337954 45.04078471 -1.375 52.0625 C-1.40585693 52.9078833 -1.43671387 53.7532666 -1.46850586 54.62426758 C-1.76774778 60.76774778 -1.76774778 60.76774778 -4 63 C-5.31219886 44.34803047 -5.09926157 25.68560811 -5 7 C-4.67 7 -4.34 7 -4 7 C-3.71125 6.030625 -3.4225 5.06125 -3.125 4.0625 C-2 1 -2 1 0 0 Z " fill="#47A152" transform="translate(29,53)"/>
<path d="M0 0 C24.42 0 48.84 0 74 0 C73.67 0.66 73.34 1.32 73 2 C67.08726844 3.11560973 61.31885804 2.99702133 55.328125 2.96484375 C53.32552196 2.95791775 51.32291868 2.95101717 49.3203125 2.94506836 C47.94725778 2.94004894 46.57420838 2.93323201 45.20117188 2.92456055 C38.05090027 2.88068857 31.06826315 2.84914177 24 4 C24 3.01 24 2.02 24 1 C16.08 1 8.16 1 0 1 C0 0.67 0 0.34 0 0 Z " fill="#439756" transform="translate(60,24)"/>
<path d="M0 0 C0.99 0.495 0.99 0.495 2 1 C2 1.99 2 2.98 2 4 C-1 6.1875 -1 6.1875 -4 8 C-4.99 7.505 -4.99 7.505 -6 7 C-7.52015493 6.89598071 -9.04472534 6.85350211 -10.56838989 6.84178162 C-11.53035278 6.8319928 -12.49231567 6.82220398 -13.48342896 6.81211853 C-14.5422226 6.80636307 -15.60101624 6.8006076 -16.69189453 6.79467773 C-18.36019318 6.77982834 -18.36019318 6.77982834 -20.06219482 6.76467896 C-23.75237878 6.73299545 -27.44257563 6.70827944 -31.1328125 6.68359375 C-33.6858657 6.66303014 -36.23891545 6.64203383 -38.79196167 6.62062073 C-44.83383707 6.57099457 -50.87573004 6.52574516 -56.91765392 6.48259836 C-63.79547277 6.43323933 -70.67324364 6.37831626 -77.55101609 6.32291877 C-91.70063262 6.20907474 -105.85029522 6.10224098 -120 6 C-120 5.67 -120 5.34 -120 5 C-119.17892226 4.99641747 -119.17892226 4.99641747 -118.3412571 4.99276257 C-104.98530264 4.93347218 -91.62952868 4.85764729 -78.27376747 4.76428509 C-71.81484865 4.71962876 -65.35599222 4.68036197 -58.89697266 4.65356445 C-52.65932812 4.62748456 -46.42192429 4.58704845 -40.18442917 4.53681374 C-37.80913673 4.5201768 -35.43380269 4.50864283 -33.05846024 4.50238609 C-29.72182453 4.49271071 -26.38580024 4.4646093 -23.04931641 4.43237305 C-22.0753894 4.43380814 -21.1014624 4.43524323 -20.09802246 4.4367218 C-13.0143871 4.34044208 -6.39063929 3.19531965 0 0 Z " fill="#CAEDF2" transform="translate(180,196)"/>
<path d="M0 0 C2.33944736 0.28730055 4.6739143 0.61936779 7 1 C7 1.66 7 2.32 7 3 C6.14523449 3.00496522 6.14523449 3.00496522 5.27320099 3.01003075 C-8.61610639 3.09138234 -22.50530488 3.18363748 -36.39446259 3.28752708 C-43.11125937 3.33756989 -49.82804447 3.38401346 -56.54492188 3.421875 C-63.02889413 3.45878995 -69.51273641 3.50516715 -75.99659729 3.55806351 C-78.46844703 3.57657439 -80.94032459 3.5916945 -83.41221619 3.60334396 C-86.87846137 3.62026273 -90.34441102 3.64931208 -93.81054688 3.68115234 C-94.82906738 3.68331253 -95.84758789 3.68547272 -96.89697266 3.68769836 C-102.5995704 3.75447203 -107.52725648 4.37496618 -113 6 C-113 5.34 -113 4.68 -113 4 C-104.38656918 -1.74228721 -88.9015772 0.88387781 -78.79780006 0.92483521 C-75.59148624 0.93771305 -72.38521423 0.94414198 -69.17887878 0.94897461 C-62.39006682 0.9603306 -55.60129006 0.97961972 -48.8125 1 C-40.90475921 1.02359277 -32.99703722 1.04394329 -25.08926964 1.05593872 C-21.92438041 1.0624387 -18.75955031 1.07493751 -15.59468079 1.08764648 C-13.67225191 1.09127567 -11.74982249 1.09462781 -9.82739258 1.09765625 C-8.94281876 1.10282257 -8.05824493 1.10798889 -7.14686584 1.11331177 C-5.09756247 1.1134923 -3.04835079 1.06247711 -1 1 C-0.67 0.67 -0.34 0.34 0 0 Z " fill="#F0FFF2" transform="translate(161,21)"/>
<path d="M0 0 C-0.144375 0.53625 -0.28875 1.0725 -0.4375 1.625 C-0.623125 2.40875 -0.80875 3.1925 -1 4 C-1.2475 4.969375 -1.495 5.93875 -1.75 6.9375 C-2.05202217 10.63727159 -1.16045681 12.06177873 1 15 C0.01 15.66 -0.98 16.32 -2 17 C-2.28846456 19.14327419 -2.28846456 19.14327419 -2.0625 21.5 C-1.91015625 23.90625 -1.91015625 23.90625 -2 26 C-2.66 26.66 -3.32 27.32 -4 28 C-4.33 27.01 -4.66 26.02 -5 25 C-5.66 24.67 -6.32 24.34 -7 24 C-7.38218767 22.34385343 -7.71395102 20.67542976 -8 19 C-8.33 18.34 -8.66 17.68 -9 17 C-8.0625 14.875 -8.0625 14.875 -7 13 C-7.66 12.67 -8.32 12.34 -9 12 C-8.76083941 5.90140505 -8.76083941 5.90140505 -6.66796875 3.421875 C-2.62661638 0 -2.62661638 0 0 0 Z " fill="#3B8D63" transform="translate(65,112)"/>
<path d="M0 0 C6.27 0 12.54 0 19 0 C19 1.98 19 3.96 19 6 C14.38 6 9.76 6 5 6 C5 6.99 5 7.98 5 9 C4.01 8.67 3.02 8.34 2 8 C1.34 8.99 0.68 9.98 0 11 C0 7.37 0 3.74 0 0 Z " fill="#DEEBE6" transform="translate(90,112)"/>
<path d="M0 0 C1.9375 0.3125 1.9375 0.3125 4 1 C4.33 1.99 4.66 2.98 5 4 C7.31029085 4.74259349 9.645752 5.411438 12 6 C13 7 13 7 13.0625 10.0625 C13.041875 11.031875 13.02125 12.00125 13 13 C12.34 13 11.68 13 11 13 C10.67 11.68 10.34 10.36 10 9 C8.515 11.475 8.515 11.475 7 14 C2.545 13.01 2.545 13.01 -2 12 C-2.75 9.75 -2.75 9.75 -3 7 C-1.0625 4.6875 -1.0625 4.6875 1 3 C0.67 2.01 0.34 1.02 0 0 Z " fill="#E1F6F2" transform="translate(71,124)"/>
<path d="M0 0 C1.88428711 0.08507812 1.88428711 0.08507812 3.80664062 0.171875 C6.8925585 0.31267734 9.97757958 0.4640255 13.0625 0.625 C13.0625 0.955 13.0625 1.285 13.0625 1.625 C7.11281143 3.43115546 3.17879242 3.57407986 -2.9375 2.625 C-3.9275 3.12 -3.9275 3.12 -4.9375 3.625 C-5.2675 4.615 -5.5975 5.605 -5.9375 6.625 C-10.6875 5.875 -10.6875 5.875 -12.9375 3.625 C-13.2675 4.285 -13.5975 4.945 -13.9375 5.625 C-15.2575 5.625 -16.5775 5.625 -17.9375 5.625 C-18.2675 6.285 -18.5975 6.945 -18.9375 7.625 C-20.9175 7.625 -22.8975 7.625 -24.9375 7.625 C-24.9375 6.965 -24.9375 6.305 -24.9375 5.625 C-23.9475 5.625 -22.9575 5.625 -21.9375 5.625 C-21.6075 4.305 -21.2775 2.985 -20.9375 1.625 C-14.02393881 -1.06646067 -7.30579589 -0.38310414 0 0 Z " fill="#5EB353" transform="translate(69.9375,24.375)"/>
<path d="M0 0 C0.66 0 1.32 0 2 0 C3.37519966 5.36327868 3.11786468 9.91378954 1 15 C-2.57515497 20.14629931 -5.96375769 23.98791923 -12 26 C-12.33 25.01 -12.66 24.02 -13 23 C-12.01 22.34 -11.02 21.68 -10 21 C-9.7497843 17.91634129 -9.7497843 17.91634129 -10 15 C-7.69 15 -5.38 15 -3 15 C-1.85948394 10.01716284 -0.77774134 5.05531868 0 0 Z " fill="#195D76" transform="translate(194,169)"/>
<path d="M0 0 C1.65 0 3.3 0 5 0 C5 7.59 5 15.18 5 23 C3.35 23 1.7 23 0 23 C0 15.41 0 7.82 0 0 Z " fill="#EEF6F1" transform="translate(85,76)"/>
<path d="M0 0 C4.69562266 -0.04977421 9.39108863 -0.08589521 14.08691406 -0.10986328 C15.68134235 -0.11986475 17.27575257 -0.13347031 18.87011719 -0.15087891 C21.17387376 -0.17538695 23.47738595 -0.18654176 25.78125 -0.1953125 C26.48366821 -0.20563507 27.18608643 -0.21595764 27.90979004 -0.22659302 C32.9020395 -0.22770188 37.19454554 0.63845457 42 2 C42.495 4.475 42.495 4.475 43 7 C41.081875 6.8453125 41.081875 6.8453125 39.125 6.6875 C38.40570313 6.62949219 37.68640625 6.57148438 36.9453125 6.51171875 C35 6 35 6 33 3 C32.01 3.33 31.02 3.66 30 4 C28.32337342 3.72105162 26.65747602 3.37638031 25 3 C22.56441124 2.63292007 20.12674382 2.27945007 17.6875 1.9375 C16.43324219 1.76089844 15.17898437 1.58429687 13.88671875 1.40234375 C12.93410156 1.26957031 11.98148438 1.13679688 11 1 C10.67 1.66 10.34 2.32 10 3 C6.7 3 3.4 3 0 3 C0 2.01 0 1.02 0 0 Z " fill="#358B5C" transform="translate(134,24)"/>
<path d="M0 0 C0.33 1.32 0.66 2.64 1 4 C-0.65 5.32 -2.3 6.64 -4 8 C-4 7.01 -4 6.02 -4 5 C-3.34 5 -2.68 5 -2 5 C-1.34 3.35 -0.68 1.7 0 0 Z M-6 8 C-5.01 8.33 -4.02 8.66 -3 9 C-2.75 11.25 -2.75 11.25 -3 14 C-5.2477854 16.79035429 -6.57730016 17.85910005 -10 19 C-10.33 20.98 -10.66 22.96 -11 25 C-16.37305699 25.96891192 -16.37305699 25.96891192 -19 26 C-21 24.5625 -21 24.5625 -22 23 C-19.92446352 22.4465236 -18.15634036 22 -16 22 C-16 21.34 -16 20.68 -16 20 C-14.68 19.67 -13.36 19.34 -12 19 C-12 18.34 -12 17.68 -12 17 C-11.195625 16.21625 -10.39125 15.4325 -9.5625 14.625 C-7.18189674 12.18633325 -6.36364082 11.2727674 -6 8 Z " fill="#F2F2F4" transform="translate(203,174)"/>
<path d="M0 0 C0.33 0 0.66 0 1 0 C1.33 13.53 1.66 27.06 2 41 C2.66 41.33 3.32 41.66 4 42 C3.67 42.99 3.34 43.98 3 45 C2.67 45 2.34 45 2 45 C1.979375 46.216875 1.95875 47.43375 1.9375 48.6875 C1.92009766 49.71423828 1.92009766 49.71423828 1.90234375 50.76171875 C1.93421031 53.05269135 1.93421031 53.05269135 2.5625 55.4375 C3.062972 58.36883599 2.71720111 60.42411274 2.0625 63.3125 C1.77052734 64.63701172 1.77052734 64.63701172 1.47265625 65.98828125 C1.31667969 66.65214844 1.16070313 67.31601563 1 68 C0.67 68 0.34 68 0 68 C0 45.56 0 23.12 0 0 Z " fill="#36895A" transform="translate(24,96)"/>
<path d="M0 0 C4.62 0 9.24 0 14 0 C14.33 1.98 14.66 3.96 15 6 C15.66 5.34 16.32 4.68 17 4 C17 5.98 17 7.96 17 10 C13.52894633 10 11.83561963 8.83794588 8.91796875 7.08984375 C6.04529999 5.45751262 3.05703631 4.24776992 0 3 C0 2.01 0 1.02 0 0 Z " fill="#429472" transform="translate(100,81)"/>
<path d="M0 0 C0.99 0.33 1.98 0.66 3 1 C2.67 2.98 2.34 4.96 2 7 C1.34 7 0.68 7 0 7 C0 7.99 0 8.98 0 10 C-0.66 10 -1.32 10 -2 10 C-2.1546875 11.11375 -2.1546875 11.11375 -2.3125 12.25 C-3.04933797 15.1973519 -3.94799142 16.78383074 -6 19 C-6.66 19 -7.32 19 -8 19 C-8 19.66 -8 20.32 -8 21 C-9.32 21.33 -10.64 21.66 -12 22 C-12 22.66 -12 23.32 -12 24 C-13.32 24.33 -14.64 24.66 -16 25 C-16.33 24.34 -16.66 23.68 -17 23 C-16.49210938 22.67128906 -15.98421875 22.34257812 -15.4609375 22.00390625 C-7.27810709 16.3494785 -3.05924848 9.34770369 0 0 Z " fill="#D2E9F0" transform="translate(199,172)"/>
<path d="M0 0 C9.17286652 -0.63019694 9.17286652 -0.63019694 12.625 2 C13.07875 2.66 13.5325 3.32 14 4 C13.34 4.66 12.68 5.32 12 6 C11.3574765 8.06874034 11.3574765 8.06874034 11 10 C10.34 10 9.68 10 9 10 C8.34 8.68 7.68 7.36 7 6 C5.02 6 3.04 6 1 6 C-0.0625 4.125 -0.0625 4.125 -1 2 C-0.67 1.34 -0.34 0.68 0 0 Z " fill="#E5F2F2" transform="translate(121,112)"/>
<path d="M0 0 C0.515625 0.165 1.03125 0.33 1.5625 0.5 C4.739735 1.15174051 7.76369467 1.05884192 11 1 C11.99 1 12.98 1 14 1 C14.66 1.99 15.32 2.98 16 4 C13.32444477 6.67555523 11.91609626 7.00799083 8.0625 7.375 C4.35129517 7.25013703 2.00608959 6.2545672 -1 4 C-0.67 2.68 -0.34 1.36 0 0 Z " fill="#D8F1E6" transform="translate(96,93)"/>
<path d="M0 0 C1.65 0.33 3.3 0.66 5 1 C5 2.98 5 4.96 5 7 C4.01 7 3.02 7 2 7 C0.87483915 8.83284443 0.87483915 8.83284443 0 11 C0.33 11.99 0.66 12.98 1 14 C0.34 14 -0.32 14 -1 14 C-1.33 14.66 -1.66 15.32 -2 16 C-3.65 14.35 -5.3 12.7 -7 11 C-5.37660195 9.29115995 -3.70680947 7.62553283 -2 6 C-1.34 6 -0.68 6 0 6 C0 4.02 0 2.04 0 0 Z " fill="#17706A" transform="translate(163,112)"/>
<path d="M0 0 C1.9375 0.375 1.9375 0.375 4 1 C5.3899408 3.7798816 5.18488204 5.9186326 5 9 C4 11.375 4 11.375 3 13 C3.99 14.485 3.99 14.485 5 16 C2.36 15.67 -0.28 15.34 -3 15 C-3.33 13.68 -3.66 12.36 -4 11 C-3.01 10.34 -2.02 9.68 -1 9 C0.04452989 6.1512821 0 4.12305119 0 1 C0 0.67 0 0.34 0 0 Z " fill="#EAF4EE" transform="translate(78,114)"/>
<path d="M0 0 C4.83449886 2.23130716 9.41708821 5.0189869 13 9 C13.66 8.67 14.32 8.34 15 8 C15.70133599 9.57725347 16.385583 11.16211333 17.0625 12.75 C17.44535156 13.63171875 17.82820313 14.5134375 18.22265625 15.421875 C19.04600008 18.15256309 18.9773992 19.36901347 18 22 C17.67128906 21.35933594 17.34257812 20.71867187 17.00390625 20.05859375 C12.24265109 11.40059317 6.03997494 5.9405019 -3 2 C-2.01 1.34 -1.02 0.68 0 0 Z " fill="#E0F5F2" transform="translate(179,25)"/>
<path d="M0 0 C2.8992226 0.46761655 3.86675182 0.86675182 6 3 C5.625 5.125 5.625 5.125 5 7 C4.67 6.34 4.34 5.68 4 5 C2.35 4.67 0.7 4.34 -1 4 C-1 11.59 -1 19.18 -1 27 C0.65 27 2.3 27 4 27 C4 27.33 4 27.66 4 28 C2.02 28 0.04 28 -2 28 C-2.06058594 26.74703125 -2.12117188 25.4940625 -2.18359375 24.203125 C-2.26802256 22.55207276 -2.35266939 20.90103165 -2.4375 19.25 C-2.47681641 18.425 -2.51613281 17.6 -2.55664062 16.75 C-2.59853516 15.95078125 -2.64042969 15.1515625 -2.68359375 14.328125 C-2.72025146 13.5949707 -2.75690918 12.86181641 -2.79467773 12.10644531 C-3.0040595 9.95835268 -3.30882681 8.04647488 -4 6 C-4.66 5.67 -5.32 5.34 -6 5 C-6 4.01 -6 3.02 -6 2 C-4.7934375 1.7834375 -4.7934375 1.7834375 -3.5625 1.5625 C-1.07896294 1.25864751 -1.07896294 1.25864751 0 0 Z " fill="#579D73" transform="translate(86,72)"/>
<path d="M0 0 C0.804375 0.495 0.804375 0.495 1.625 1 C4.57217367 2.24091523 6.82934784 2.20678166 10 2 C10.66 1.67 11.32 1.34 12 1 C12 1.66 12 2.32 12 3 C12.66 3.66 13.32 4.32 14 5 C10.78548731 6.60725635 7.56387464 6.05748185 4 6 C4 6.99 4 7.98 4 9 C-1.66153846 7.52307692 -1.66153846 7.52307692 -3.375 4.875 C-3.58125 4.25625 -3.7875 3.6375 -4 3 C-2.68 2.01 -1.36 1.02 0 0 Z " fill="#DBEFEE" transform="translate(145,133)"/>
<path d="M0 0 C1.08667969 0.29197266 1.08667969 0.29197266 2.1953125 0.58984375 C2.74960938 0.74582031 3.30390625 0.90179688 3.875 1.0625 C3.875 1.7225 3.875 2.3825 3.875 3.0625 C4.535 3.0625 5.195 3.0625 5.875 3.0625 C5.875 5.0625 5.875 5.0625 4.375 6.6875 C3.88 7.14125 3.385 7.595 2.875 8.0625 C2.215 7.7325 1.555 7.4025 0.875 7.0625 C0.545 7.3925 0.215 7.7225 -0.125 8.0625 C-2.105 7.4025 -4.085 6.7425 -6.125 6.0625 C-6.125 4.0825 -6.125 2.1025 -6.125 0.0625 C-3.57797384 -1.21101308 -2.6967055 -0.73941925 0 0 Z " fill="#248564" transform="translate(129.125,83.9375)"/>
<path d="M0 0 C3.125 2 3.125 2 5 4 C4.67 5.32 4.34 6.64 4 8 C3.38125 7.34 2.7625 6.68 2.125 6 C-2.75519986 2.87667209 -7.65681401 3.5057899 -13.24609375 4.33203125 C-13.82488281 4.55246094 -14.40367188 4.77289063 -15 5 C-15.33 5.99 -15.66 6.98 -16 8 C-17 6 -17 6 -16.375 4 C-12.82365402 -1.16559415 -5.67009397 -0.7993903 0 0 Z " fill="#3A8563" transform="translate(135,73)"/>
<path d="M0 0 C0.99 0.99 1.98 1.98 3 3 C5.48901793 4.2122949 5.48901793 4.2122949 8.1875 5.1875 C9.08855469 5.53167969 9.98960938 5.87585938 10.91796875 6.23046875 C11.94857422 6.61138672 11.94857422 6.61138672 13 7 C12.67 7.99 12.34 8.98 12 10 C4.57142857 10.28571429 4.57142857 10.28571429 1 8 C0.67 8.66 0.34 9.32 0 10 C0 6.7 0 3.4 0 0 Z " fill="#3E8869" transform="translate(95,85)"/>
<path d="M0 0 C2.05078125 0.03255208 4.1015625 0.06510417 6.15234375 0.09765625 C6.48234375 1.74765625 6.81234375 3.39765625 7.15234375 5.09765625 C4.15234375 7.09765625 4.15234375 7.09765625 0.96484375 6.72265625 C0.03671875 6.51640625 -0.89140625 6.31015625 -1.84765625 6.09765625 C-2.22984392 4.44150968 -2.56160727 2.77308601 -2.84765625 1.09765625 C-1.84765625 0.09765625 -1.84765625 0.09765625 0 0 Z " fill="#1E7669" transform="translate(123.84765625,129.90234375)"/>
<path d="M0 0 C2.97 0 5.94 0 9 0 C9 0.66 9 1.32 9 2 C3.25 2.125 3.25 2.125 1 1 C1.185625 1.61875 1.37125 2.2375 1.5625 2.875 C2 5 2 5 1 7 C0.95977609 9.3329866 0.95679753 11.66706666 1 14 C-0.65 13.67 -2.3 13.34 -4 13 C-4.5497272 7.36529617 -2.95047835 4.61012242 0 0 Z " fill="#EEF6F0" transform="translate(122,78)"/>
<path d="M0 0 C3.375 -0.125 3.375 -0.125 7 0 C7.66 0.66 8.32 1.32 9 2 C8.625 4.125 8.625 4.125 8 6 C5.1875 6.625 5.1875 6.625 2 7 C1.01 6.34 0.02 5.68 -1 5 C-0.67 3.35 -0.34 1.7 0 0 Z " fill="#368369" transform="translate(69,130)"/>
<path d="M0 0 C6.27 0 12.54 0 19 0 C18.67 1.32 18.34 2.64 18 4 C18 3.34 18 2.68 18 2 C13.65815798 2.18464366 13.65815798 2.18464366 10 4 C8.31391034 4.07205511 6.62499341 4.08386068 4.9375 4.0625 C4.01839844 4.05347656 3.09929687 4.04445313 2.15234375 4.03515625 C1.44207031 4.02355469 0.73179687 4.01195313 0 4 C0 2.68 0 1.36 0 0 Z " fill="#EDF5F7" transform="translate(143,113)"/>
<path d="M0 0 C0.66 0.33 1.32 0.66 2 1 C2 1.99 2 2.98 2 4 C-1 6.1875 -1 6.1875 -4 8 C-4.66 7.67 -5.32 7.34 -6 7 C-7.53668865 6.77532169 -9.07968054 6.59203195 -10.625 6.4375 C-11.44226563 6.35371094 -12.25953125 6.26992187 -13.1015625 6.18359375 C-13.72804687 6.12300781 -14.35453125 6.06242188 -15 6 C-12.16443792 4.10962528 -10.16808737 3.34625138 -6.9375 2.4375 C-3.38266993 1.44027955 -3.38266993 1.44027955 0 0 Z " fill="#D6E7EE" transform="translate(180,196)"/>
<path d="M0 0 C0.84755859 0.00322266 1.69511719 0.00644531 2.56835938 0.00976562 C3.8899707 0.02233398 3.8899707 0.02233398 5.23828125 0.03515625 C6.57729492 0.04192383 6.57729492 0.04192383 7.94335938 0.04882812 C10.14590112 0.06060642 12.34830724 0.07705461 14.55078125 0.09765625 C14.55078125 0.42765625 14.55078125 0.75765625 14.55078125 1.09765625 C8.60109268 2.90381171 4.66707367 3.04673611 -1.44921875 2.09765625 C-2.43921875 2.59265625 -2.43921875 2.59265625 -3.44921875 3.09765625 C-3.77921875 4.08765625 -4.10921875 5.07765625 -4.44921875 6.09765625 C-6.09921875 5.76765625 -7.74921875 5.43765625 -9.44921875 5.09765625 C-8.63671875 3.16015625 -8.63671875 3.16015625 -7.44921875 1.09765625 C-4.6251011 0.1562837 -2.92003843 -0.01959757 0 0 Z " fill="#4EB249" transform="translate(68.44921875,24.90234375)"/>
<path d="M0 0 C0.99 0.99 1.98 1.98 3 3 C2.01 3.495 2.01 3.495 1 4 C0.67 4.99 0.34 5.98 0 7 C-0.66 7 -1.32 7 -2 7 C-2 13.27 -2 19.54 -2 26 C-2.66 26.33 -3.32 26.66 -4 27 C-4.20586065 8.35817434 -4.20586065 8.35817434 -3 2 C-2.01 1.34 -1.02 0.68 0 0 Z " fill="#50B048" transform="translate(29,53)"/>
<path d="M0 0 C0.66 0.33 1.32 0.66 2 1 C2.625 3.5625 2.625 3.5625 3 6 C-2.20333134 8.24281523 -5.34264585 9.55577239 -11 8 C-11.33 7.01 -11.66 6.02 -12 5 C-8.7 5 -5.4 5 -2 5 C-1.34 3.35 -0.68 1.7 0 0 Z " fill="#F4F3F5" transform="translate(80,132)"/>
<path d="M0 0 C0.33 0.99 0.66 1.98 1 3 C0.01 3 -0.98 3 -2 3 C-2 3.66 -2 4.32 -2 5 C-3.175625 5.37125 -3.175625 5.37125 -4.375 5.75 C-7.40937999 7.19494285 -7.67029725 8.05565819 -9 11 C-9.99 11.33 -10.98 11.66 -12 12 C-12.66 11.34 -13.32 10.68 -14 10 C-9.58595572 5.91084731 -5.5658728 2.36549594 0 0 Z " fill="#65AE5A" transform="translate(47,27)"/>
<path d="M0 0 C2.9375 0.8125 2.9375 0.8125 6 2 C6.33 2.99 6.66 3.98 7 5 C4.42910583 7.11180592 2.36939433 8.66306057 -1 9 C-1.66 8.34 -2.32 7.68 -3 7 C-2.505 6.030625 -2.01 5.06125 -1.5 4.0625 C0.07331124 1.41867592 0.07331124 1.41867592 0 0 Z " fill="#ECF7F2" transform="translate(66,123)"/>
<path d="M0 0 C0.598125 0.20625 1.19625 0.4125 1.8125 0.625 C2.19468767 2.28114657 2.52645102 3.94957024 2.8125 5.625 C1.8125 6.625 1.8125 6.625 -1.25 6.6875 C-2.219375 6.666875 -3.18875 6.64625 -4.1875 6.625 C-4.5175 4.975 -4.8475 3.325 -5.1875 1.625 C-2.1875 -0.375 -2.1875 -0.375 0 0 Z " fill="#397D6F" transform="translate(127.1875,117.375)"/>
<path d="M0 0 C1.65 0 3.3 0 5 0 C5 7.59 5 15.18 5 23 C3.35 23 1.7 23 0 23 C0 22.34 0 21.68 0 21 C1.32 21 2.64 21 4 21 C3.67 15.39 3.34 9.78 3 4 C2.01 4 1.02 4 0 4 C0 2.68 0 1.36 0 0 Z " fill="#E1FCEC" transform="translate(85,76)"/>
<path d="M0 0 C1.98 0 3.96 0 6 0 C6.66 1.65 7.32 3.3 8 5 C7 6 7 6 3.4375 6.0625 C2.303125 6.041875 1.16875 6.02125 0 6 C-1 3 -1 3 0 0 Z " fill="#277D66" transform="translate(95,130)"/>
<path d="M0 0 C3.63 0.33 7.26 0.66 11 1 C10.67 2.65 10.34 4.3 10 6 C6.7 5.67 3.4 5.34 0 5 C0 3.35 0 1.7 0 0 Z " fill="#3D8971" transform="translate(96,118)"/>
<path d="M0 0 C8.57142857 1 8.57142857 1 12 2 C12.33 3.65 12.66 5.3 13 7 C10.36 6.67 7.72 6.34 5 6 C4.67 5.01 4.34 4.02 4 3 C2.35 2.67 0.7 2.34 -1 2 C-0.67 1.34 -0.34 0.68 0 0 Z " fill="#3C8B69" transform="translate(164,24)"/>
<path d="M0 0 C0.33 0 0.66 0 1 0 C1.06058594 1.29035156 1.12117188 2.58070313 1.18359375 3.91015625 C1.26805881 5.62761255 1.35270377 7.34506002 1.4375 9.0625 C1.47681641 9.91005859 1.51613281 10.75761719 1.55664062 11.63085938 C1.80003389 16.48000209 2.22598042 21.20628212 3 26 C2.01 25.67 1.02 25.34 0 25 C-0.36093104 22.85529407 -0.71357589 20.70919203 -1.0625 18.5625 C-1.25972656 17.36753906 -1.45695312 16.17257813 -1.66015625 14.94140625 C-1.77230469 13.97074219 -1.88445313 13.00007812 -2 12 C-1.67 11.67 -1.34 11.34 -1 11 C-0.76636119 9.15108054 -0.58696365 7.29511969 -0.4375 5.4375 C-0.35371094 4.42558594 -0.26992188 3.41367188 -0.18359375 2.37109375 C-0.12300781 1.58863281 -0.06242187 0.80617187 0 0 Z " fill="#E4FAF4" transform="translate(23,149)"/>
<path d="M0 0 C1.4540625 0.0309375 1.4540625 0.0309375 2.9375 0.0625 C3.5625 1.9375 3.5625 1.9375 3.9375 4.0625 C1.9375 6.0625 1.9375 6.0625 -0.6875 6.1875 C-1.47125 6.14625 -2.255 6.105 -3.0625 6.0625 C-3.44468767 4.40635343 -3.77645102 2.73792976 -4.0625 1.0625 C-3.0625 0.0625 -3.0625 0.0625 0 0 Z " fill="#338467" transform="translate(73.0625,117.9375)"/>
<path d="M0 0 C3.96 0.33 7.92 0.66 12 1 C11.67 2.65 11.34 4.3 11 6 C8.69 6 6.38 6 4 6 C4 5.01 4 4.02 4 3 C2.68 2.67 1.36 2.34 0 2 C0 1.34 0 0.68 0 0 Z " fill="#1B7B6A" transform="translate(44,192)"/>
<path d="M0 0 C2.1385485 2.1385485 2.42655063 3.13275314 3 6 C3.33 4.35 3.66 2.7 4 1 C4.99 1.33 5.98 1.66 7 2 C7 3.98 7 5.96 7 8 C4 9 4 9 1 9 C-1 6 -1 6 -0.625 2.8125 C-0.41875 1.884375 -0.2125 0.95625 0 0 Z " fill="#D4ECDF" transform="translate(63,116)"/>
<path d="M0 0 C1.3303125 0.00773437 1.3303125 0.00773437 2.6875 0.015625 C3.574375 0.01046875 4.46125 0.0053125 5.375 0 C7.6875 0.265625 7.6875 0.265625 9.6875 2.265625 C8.3675 2.595625 7.0475 2.925625 5.6875 3.265625 C5.6875 3.925625 5.6875 4.585625 5.6875 5.265625 C3.0475 5.595625 0.4075 5.925625 -2.3125 6.265625 C-2.6425 5.275625 -2.9725 4.285625 -3.3125 3.265625 C-0.6725 3.595625 1.9675 3.925625 4.6875 4.265625 C4.6875 3.605625 4.6875 2.945625 4.6875 2.265625 C1.7175 2.265625 -1.2525 2.265625 -4.3125 2.265625 C-2.3125 0.265625 -2.3125 0.265625 0 0 Z " fill="#D2F0E2" transform="translate(126.3125,75.734375)"/>
<path d="M0 0 C7.26 0 14.52 0 22 0 C20 2 20 2 17.4609375 2.16015625 C16.44257812 2.12792969 15.42421875 2.09570312 14.375 2.0625 C9.44895814 1.97347515 4.86394415 2.2517009 0 3 C0 2.01 0 1.02 0 0 Z " fill="#45A955" transform="translate(84,25)"/>
<path d="M0 0 C0.99 0 1.98 0 3 0 C3.8125 1.6875 3.8125 1.6875 4 4 C1.875 6.75 1.875 6.75 -1 9 C-3.8125 9.3125 -3.8125 9.3125 -6 9 C-6 8.34 -6 7.68 -6 7 C-6.99 6.67 -7.98 6.34 -9 6 C-7.00045254 5.95745644 -4.99958364 5.95919217 -3 6 C-2.67 6.33 -2.34 6.66 -2 7 C-1.34 4.69 -0.68 2.38 0 0 Z " fill="#F5F1F6" transform="translate(132,131)"/>
<path d="M0 0 C0.99 0.66 1.98 1.32 3 2 C2.67 3.32 2.34 4.64 2 6 C1.34 5.01 0.68 4.02 0 3 C-3.06556598 2.26656572 -3.06556598 2.26656572 -6 2 C-6.33 3.65 -6.66 5.3 -7 7 C-7.99 6.34 -8.98 5.68 -10 5 C-8.22986809 -0.31039572 -5.07258398 -0.42271533 0 0 Z " fill="#478876" transform="translate(101,128)"/>
<path d="M0 0 C0.66 0 1.32 0 2 0 C1.38722388 2.96175123 0.74627478 4.38058783 -1 7 C-1.16699232 10.12521833 -1.16699232 10.12521833 -1 13 C0.65 13.33 2.3 13.66 4 14 C1 15.5 1 15.5 -2 17 C-3.84095948 13.31808105 -3.36673652 9.02777865 -3 5 C-1.625 1.875 -1.625 1.875 0 0 Z " fill="#D6F0E5" transform="translate(120,78)"/>
<path d="M0 0 C4.62 2.31 9.24 4.62 14 7 C13.67 7.66 13.34 8.32 13 9 C8.31479085 7.78184562 4.29456388 6.30440013 0 4 C0 2.68 0 1.36 0 0 Z " fill="#D8F0EF" transform="translate(38,192)"/>
<path d="M0 0 C2.31 0.66 4.62 1.32 7 2 C6.34 3.32 5.68 4.64 5 6 C2.36 5.67 -0.28 5.34 -3 5 C-2.01 3.35 -1.02 1.7 0 0 Z " fill="#D3EEE1" transform="translate(105,76)"/>
<path d="M0 0 C2.475 0.99 2.475 0.99 5 2 C5 5.20395416 4.25664978 7.09399739 3 10 C2.34 10 1.68 10 1 10 C0.01 8.02 -0.98 6.04 -2 4 C-1.01 3.34 -0.02 2.68 1 2 C0.67 1.34 0.34 0.68 0 0 Z " fill="#D4EFEA" transform="translate(129,112)"/>
<path d="M0 0 C0.33 0.66 0.66 1.32 1 2 C1.66 2 2.32 2 3 2 C2.67 3.65 2.34 5.3 2 7 C1.01 7 0.02 7 -1 7 C-3.15028304 7.94978897 -3.15028304 7.94978897 -5 9 C-5.33 8.01 -5.66 7.02 -6 6 C-5.195625 5.566875 -4.39125 5.13375 -3.5625 4.6875 C-0.72153646 3.19525998 -0.72153646 3.19525998 0 0 Z " fill="#2B7676" transform="translate(147,127)"/>
<path d="M0 0 C2 6.625 2 6.625 2 10 C0.35 10.33 -1.3 10.66 -3 11 C-3 7.7 -3 4.4 -3 1 C-1 0 -1 0 0 0 Z " fill="#33866F" transform="translate(116,118)"/>
<path d="M0 0 C2.50357861 0.8345262 4.66785852 1.79371992 7 3 C6.34 3 5.68 3 5 3 C4.67 3.66 4.34 4.32 4 5 C1.4375 5.625 1.4375 5.625 -1 6 C-1 5.67 -1 5.34 -1 5 C-3.97 4.67 -6.94 4.34 -10 4 C-10 3.67 -10 3.34 -10 3 C-9.36191406 2.95101562 -8.72382813 2.90203125 -8.06640625 2.8515625 C-7.24011719 2.77679688 -6.41382813 2.70203125 -5.5625 2.625 C-4.73878906 2.55539063 -3.91507813 2.48578125 -3.06640625 2.4140625 C-2.38449219 2.27742188 -1.70257813 2.14078125 -1 2 C-0.67 1.34 -0.34 0.68 0 0 Z " fill="#DFECEE" transform="translate(153,114)"/>
<path d="M0 0 C3.72114571 2.31537955 6.61229661 4.28579473 9 8 C1.52163462 7.38701923 1.52163462 7.38701923 -0.9375 5.5625 C-2 4 -2 4 -3 2 C-2.01 1.34 -1.02 0.68 0 0 Z " fill="#3C8C6B" transform="translate(94,95)"/>
<path d="M0 0 C0.33 0 0.66 0 1 0 C1.061875 0.78375 1.12375 1.5675 1.1875 2.375 C1.455625 3.24125 1.72375 4.1075 2 5 C4.47636012 6.37466625 4.47636012 6.37466625 7 7 C7 6.34 7 5.68 7 5 C7.66 5.33 8.32 5.66 9 6 C9.625 8.0625 9.625 8.0625 10 10 C6.46322336 10.32152515 4.6037896 10.4131192 1.625 8.375 C-0.4131192 5.3962104 -0.32152515 3.53677664 0 0 Z " fill="#448772" transform="translate(122,85)"/>
<path d="M0 0 C0.99 0.33 1.98 0.66 3 1 C2.67 2.98 2.34 4.96 2 7 C1.34 7 0.68 7 0 7 C0 7.99 0 8.98 0 10 C-1.32 10.33 -2.64 10.66 -4 11 C-2.68 7.37 -1.36 3.74 0 0 Z " fill="#CFE5EE" transform="translate(199,172)"/>
<path d="M0 0 C0.5534764 2.07553648 1 3.84365964 1 6 C1.66 6 2.32 6 3 6 C3 6.66 3 7.32 3 8 C2.34 8 1.68 8 1 8 C0.67 8.66 0.34 9.32 0 10 C-1.65 8.35 -3.3 6.7 -5 5 C-3.35 3.35 -1.7 1.7 0 0 Z " fill="#29736E" transform="translate(161,118)"/>
<path d="M0 0 C0.66 0.33 1.32 0.66 2 1 C2 1.66 2 2.32 2 3 C1.2265625 3.6496875 1.2265625 3.6496875 0.4375 4.3125 C-0.036875 4.869375 -0.51125 5.42625 -1 6 C-0.81931089 8.48823926 -0.81931089 8.48823926 0 11 C0.2784375 12.1446875 0.2784375 12.1446875 0.5625 13.3125 C0.706875 13.869375 0.85125 14.42625 1 15 C-1 14 -1 14 -3 11 C-3.41890051 8.30162788 -3.38846696 5.70237884 -3 3 C-1.5 1 -1.5 1 0 0 Z " fill="#D2F1E9" transform="translate(119,113)"/>
<path d="M0 0 C2.6486859 3.19668988 4.93992341 6.39486597 7 10 C5.02 9.34 3.04 8.68 1 8 C0.67 8.66 0.34 9.32 0 10 C0 6.7 0 3.4 0 0 Z " fill="#4A8F6F" transform="translate(95,85)"/>
<path d="M0 0 C2.35964273 0.40683495 3.85934088 0.89814339 5.8125 2.3125 C7 4 7 4 6.6875 6.1875 C6.3471875 7.0846875 6.3471875 7.0846875 6 8 C5.319375 7.360625 4.63875 6.72125 3.9375 6.0625 C0.53591161 3.6741507 -1.90433701 3.32122847 -6 3 C-6 2.67 -6 2.34 -6 2 C-4.02 2 -2.04 2 0 2 C0 1.34 0 0.68 0 0 Z " fill="#458A70" transform="translate(133,73)"/>
<path d="M0 0 C0.99 0 1.98 0 3 0 C1.68 5.28 0.36 10.56 -1 16 C-1.33 16 -1.66 16 -2 16 C-1.85975781 13.52039864 -1.7130815 11.04147598 -1.5625 8.5625 C-1.52318359 7.85544922 -1.48386719 7.14839844 -1.44335938 6.41992188 C-1.11328125 1.11328125 -1.11328125 1.11328125 0 0 Z " fill="#E5FCE1" transform="translate(24,48)"/>
<path d="M0 0 C3.875 1.875 3.875 1.875 5 3 C5.16796875 4.99609375 5.16796875 4.99609375 5.1875 7.4375 C5.20167969 8.24058594 5.21585937 9.04367188 5.23046875 9.87109375 C5 12 5 12 3 14 C2.92652344 12.98679688 2.92652344 12.98679688 2.8515625 11.953125 C2.77679688 11.06109375 2.70203125 10.1690625 2.625 9.25 C2.55539063 8.36828125 2.48578125 7.4865625 2.4140625 6.578125 C2.00149945 4.00933618 1.28839043 2.24158985 0 0 Z " fill="#D3F4F0" transform="translate(105,124)"/>
<path d="M0 0 C0.99 0.33 1.98 0.66 3 1 C4.1875 4.5625 4.1875 4.5625 5 8 C4.01 8.33 3.02 8.66 2 9 C1.01 8.34 0.02 7.68 -1 7 C-0.67 4.69 -0.34 2.38 0 0 Z " fill="#339361" transform="translate(57,117)"/>
<path d="M0 0 C1.32 0.66 2.64 1.32 4 2 C3.67 2.99 3.34 3.98 3 5 C2.34 4.67 1.68 4.34 1 4 C1.33 4.99 1.66 5.98 2 7 C1.34 7 0.68 7 0 7 C0 7.66 0 8.32 0 9 C-0.66 8.67 -1.32 8.34 -2 8 C-2.125 5.125 -2.125 5.125 -2 2 C-1.34 1.34 -0.68 0.68 0 0 Z " fill="#EEF4F0" transform="translate(66,113)"/>
<path d="M0 0 C0.99 0.33 1.98 0.66 3 1 C3.34684009 6.28931132 3.34684009 6.28931132 3 9 C1.1875 11.0625 1.1875 11.0625 -1 12 C-1.99 11.67 -2.98 11.34 -4 11 C-3.01 10.34 -2.02 9.68 -1 9 C-0.33796061 6.59258404 0 4.49346035 0 2 C0 1.34 0 0.68 0 0 Z " fill="#F0F5F8" transform="translate(138,82)"/>
<path d="M0 0 C0.33 0.66 0.66 1.32 1 2 C-0.22976562 2.19916016 -0.22976562 2.19916016 -1.484375 2.40234375 C-3.10085937 2.66724609 -3.10085937 2.66724609 -4.75 2.9375 C-6.35101563 3.19853516 -6.35101563 3.19853516 -7.984375 3.46484375 C-10.36347593 3.88704171 -12.66915211 4.37202884 -15 5 C-15 4.34 -15 3.68 -15 3 C-10.38649226 -0.07567183 -5.44961357 -0.16513981 0 0 Z " fill="#E7FEE4" transform="translate(63,22)"/>
<path d="M0 0 C0.33 0 0.66 0 1 0 C1 1.98 1 3.96 1 6 C4.63 6 8.26 6 12 6 C11.01 6.99 10.02 7.98 9 9 C9 8.34 9 7.68 9 7 C7.6078125 7.5259375 7.6078125 7.5259375 6.1875 8.0625 C3 9 3 9 0 8 C0 5.36 0 2.72 0 0 Z " fill="#226A60" transform="translate(141,112)"/>
<path d="M0 0 C0.33 0 0.66 0 1 0 C0.91231752 1.5843317 0.80412671 3.16753567 0.6875 4.75 C0.62949219 5.63171875 0.57148438 6.5134375 0.51171875 7.421875 C0 10 0 10 -3 14 C-3 10.7 -3 7.4 -3 4 C-2.34 4 -1.68 4 -1 4 C-0.67 2.68 -0.34 1.36 0 0 Z " fill="#15546A" transform="translate(199,166)"/>
<path d="M0 0 C0.66 0 1.32 0 2 0 C2.33 1.65 2.66 3.3 3 5 C2.01 5 1.02 5 0 5 C-0.33 6.32 -0.66 7.64 -1 9 C-1.66 8.67 -2.32 8.34 -3 8 C-2.67 6.35 -2.34 4.7 -2 3 C-1.34 3 -0.68 3 0 3 C0 2.01 0 1.02 0 0 Z " fill="#14786E" transform="translate(138,119)"/>
<path d="M0 0 C0.66 0 1.32 0 2 0 C0.25 4.875 0.25 4.875 -2 6 C-2 5.34 -2 4.68 -2 4 C-5.3 4.33 -8.6 4.66 -12 5 C-12 4.67 -12 4.34 -12 4 C-5.37254902 2.08823529 -5.37254902 2.08823529 -2.625 1.4375 C-0.97072961 1.13705109 -0.97072961 1.13705109 0 0 Z " fill="#D4EFEA" transform="translate(139,91)"/>
<path d="M0 0 C0.66 0.33 1.32 0.66 2 1 C2 2.98 2 4.96 2 7 C0.35 7 -1.3 7 -3 7 C-1.125 1.125 -1.125 1.125 0 0 Z " fill="#318B68" transform="translate(28,165)"/>
<path d="M0 0 C0.99 1.32 1.98 2.64 3 4 C0.23749964 5.38125018 -1.94731099 5.19079306 -5 5 C-5.66 4.34 -6.32 3.68 -7 3 C-4.69 2.01 -2.38 1.02 0 0 Z " fill="#DDE7E4" transform="translate(156,134)"/>
<path d="M0 0 C0.66 0.33 1.32 0.66 2 1 C1.071875 1.763125 0.14375 2.52625 -0.8125 3.3125 C-2.98276101 5.11848552 -5.05568065 6.9476629 -7 9 C-6.67 6.69 -6.34 4.38 -6 2 C-5.01 2.33 -4.02 2.66 -3 3 C-3 2.34 -3 1.68 -3 1 C-2.01 0.67 -1.02 0.34 0 0 Z " fill="#E6FBE4" transform="translate(38,31)"/>
<path d="M0 0 C2.19510603 0.25361783 4.38228739 0.57765908 6.5625 0.9375 C8.35880859 1.22947266 8.35880859 1.22947266 10.19140625 1.52734375 C11.11824219 1.68332031 12.04507813 1.83929688 13 2 C9.83050223 4.11299851 9.49404825 4.25293119 6 3.75 C4.9790625 3.61851562 4.9790625 3.61851562 3.9375 3.484375 C2 3 2 3 -1 1 C-0.67 0.67 -0.34 0.34 0 0 Z " fill="#3A796F" transform="translate(50,197)"/>
<path d="M0 0 C2.31 0 4.62 0 7 0 C6.67 1.32 6.34 2.64 6 4 C4.02 4 2.04 4 0 4 C0 2.68 0 1.36 0 0 Z " fill="#065A7B" transform="translate(184,184)"/>
<path d="M0 0 C0.33 0.99 0.66 1.98 1 3 C2.32 2.67 3.64 2.34 5 2 C5.33 3.98 5.66 5.96 6 8 C3.69 7.67 1.38 7.34 -1 7 C-0.67 4.69 -0.34 2.38 0 0 Z " fill="#3D8378" transform="translate(110,130)"/>
<path d="M0 0 C0.66 0 1.32 0 2 0 C2.33 1.32 2.66 2.64 3 4 C2.34 4 1.68 4 1 4 C1.33 4.99 1.66 5.98 2 7 C0.68 7.99 -0.64 8.98 -2 10 C-1.85950482 8.52031676 -1.71245174 7.04125484 -1.5625 5.5625 C-1.48128906 4.73878906 -1.40007812 3.91507813 -1.31640625 3.06640625 C-1 1 -1 1 0 0 Z " fill="#0A6E75" transform="translate(166,128)"/>
<path d="M0 0 C1.093125 0.226875 2.18625 0.45375 3.3125 0.6875 C3.3125 1.6775 3.3125 2.6675 3.3125 3.6875 C0.76547384 4.96101308 -0.1157945 4.48941925 -2.8125 3.75 C-3.53695312 3.55535156 -4.26140625 3.36070312 -5.0078125 3.16015625 C-5.56210938 3.00417969 -6.11640625 2.84820312 -6.6875 2.6875 C-4.58035839 -0.41123767 -3.86755884 -0.32775922 0 0 Z " fill="#F4F8FB" transform="translate(128.6875,126.3125)"/>
<path d="M0 0 C1.9375 0.3125 1.9375 0.3125 4 1 C4.33 1.99 4.66 2.98 5 4 C5.66 4.33 6.32 4.66 7 5 C6.67 5.99 6.34 6.98 6 8 C4.02 7.34 2.04 6.68 0 6 C0.33 5.01 0.66 4.02 1 3 C0.67 2.01 0.34 1.02 0 0 Z " fill="#CCE0D8" transform="translate(71,124)"/>
<path d="M0 0 C0.66 0 1.32 0 2 0 C2 1.65 2 3.3 2 5 C-1.96 5 -5.92 5 -10 5 C-10 4.67 -10 4.34 -10 4 C-6.7 3.67 -3.4 3.34 0 3 C0 2.01 0 1.02 0 0 Z " fill="#CFF7ED" transform="translate(107,113)"/>
<path d="M0 0 C4.21878192 -0.19622241 7.17010894 0.19769832 11 2 C10.67 2.66 10.34 3.32 10 4 C9.0925 3.835 8.185 3.67 7.25 3.5 C3.88912497 2.89862854 3.88912497 2.89862854 0 3 C0 2.01 0 1.02 0 0 Z " fill="#3E8567" transform="translate(100,81)"/>
<path d="M0 0 C1.9453125 -0.29296875 1.9453125 -0.29296875 4.125 -0.1875 C5.40375 -0.125625 6.6825 -0.06375 8 0 C7.01 0.495 7.01 0.495 6 1 C6 1.66 6 2.32 6 3 C3.33333333 3 0.66666667 3 -2 3 C-1.34 2.01 -0.68 1.02 0 0 Z " fill="#3F886E" transform="translate(125,81)"/>
<path d="M0 0 C0.33 1.32 0.66 2.64 1 4 C-2.63 4 -6.26 4 -10 4 C-6.66189518 2.33094759 -3.53842155 1.1258614 0 0 Z " fill="#16676F" transform="translate(161,140)"/>
<path d="M0 0 C2.33944736 0.28730055 4.6739143 0.61936779 7 1 C6.67 1.99 6.34 2.98 6 4 C4.02 4 2.04 4 0 4 C-0.33 3.01 -0.66 2.02 -1 1 C-0.67 0.67 -0.34 0.34 0 0 Z " fill="#EDF7F9" transform="translate(149,138)"/>
<path d="M0 0 C0.33 0 0.66 0 1 0 C1.625 3.375 1.625 3.375 2 7 C1.34 7.66 0.68 8.32 0 9 C-0.33 8.01 -0.66 7.02 -1 6 C-1.66 5.67 -2.32 5.34 -3 5 C-2.03114628 3.31503702 -1.03013277 1.64821244 0 0 Z " fill="#4F9375" transform="translate(61,131)"/>
<path d="M0 0 C4.62 0 9.24 0 14 0 C13.67 1.32 13.34 2.64 13 4 C12.01 3.34 11.02 2.68 10 2 C7.48415109 1.75849227 7.48415109 1.75849227 4.8125 1.875 C3.46091797 1.90207031 3.46091797 1.90207031 2.08203125 1.9296875 C1.05142578 1.96449219 1.05142578 1.96449219 0 2 C0 1.34 0 0.68 0 0 Z " fill="#458C6A" transform="translate(67,111)"/>
<path d="M0 0 C5 2 5 2 10 4 C9.67 4.99 9.34 5.98 9 7 C7.68381002 6.21448343 6.37214772 5.4213763 5.0625 4.625 C4.33160156 4.18414062 3.60070313 3.74328125 2.84765625 3.2890625 C1 2 1 2 0 0 Z " fill="#36766A" transform="translate(38,191)"/>
<path d="M0 0 C2.46800047 1.15173355 4.04783565 2.04783565 6 4 C5.625 6.125 5.625 6.125 5 8 C4.01 7.34 3.02 6.68 2 6 C2 4.68 2 3.36 2 2 C1.34 2 0.68 2 0 2 C0 1.34 0 0.68 0 0 Z " fill="#E9FCF9" transform="translate(32,188)"/>
<path d="M0 0 C0.66 0 1.32 0 2 0 C2.33 1.98 2.66 3.96 3 6 C2.01 6.33 1.02 6.66 0 7 C-0.33 7.99 -0.66 8.98 -1 10 C-1.33 9.34 -1.66 8.68 -2 8 C-1.35561283 6.32459336 -0.68753301 4.65816784 0 3 C0 2.01 0 1.02 0 0 Z " fill="#046182" transform="translate(194,169)"/>
<path d="M0 0 C1.98 0.495 1.98 0.495 4 1 C3.67 2.32 3.34 3.64 3 5 C1.68 4.67 0.36 4.34 -1 4 C-0.67 2.68 -0.34 1.36 0 0 Z " fill="#0D6B79" transform="translate(164,139)"/>
<path d="M0 0 C0.66 0.33 1.32 0.66 2 1 C1.67 1.99 1.34 2.98 1 4 C3.475 4.99 3.475 4.99 6 6 C4.1875 6.625 4.1875 6.625 2 7 C1.01 6.34 0.02 5.68 -1 5 C-0.67 3.35 -0.34 1.7 0 0 Z " fill="#36756B" transform="translate(122,130)"/>
<path d="M0 0 C2.475 0.495 2.475 0.495 5 1 C5.33 2.32 5.66 3.64 6 5 C4.68 5.33 3.36 5.66 2 6 C2 4.35 2 2.7 2 1 C1.34 0.67 0.68 0.34 0 0 Z " fill="#347274" transform="translate(151,129)"/>
<path d="M0 0 C1.98 0.495 1.98 0.495 4 1 C4 2.32 4 3.64 4 5 C2.35 5 0.7 5 -1 5 C-0.67 3.35 -0.34 1.7 0 0 Z " fill="#1F7665" transform="translate(125,119)"/>
<path d="M0 0 C0 2.97 0 5.94 0 9 C-0.66 9 -1.32 9 -2 9 C-2.33 6.36 -2.66 3.72 -3 1 C-1 0 -1 0 0 0 Z " fill="#357870" transform="translate(138,113)"/>
<path d="M0 0 C1.32 0.66 2.64 1.32 4 2 C3.0409375 2.433125 3.0409375 2.433125 2.0625 2.875 C-0.15206079 3.82823451 -0.15206079 3.82823451 -1 6 C-1.66 5.34 -2.32 4.68 -3 4 C-2.01 2.68 -1.02 1.36 0 0 Z " fill="#237964" transform="translate(140,94)"/>
<path d="M0 0 C0.66 0 1.32 0 2 0 C2 0.66 2 1.32 2 2 C1.67 2.33 1.34 2.66 1 3 C1.33 3.99 1.66 4.98 2 6 C1.01 6.66 0.02 7.32 -1 8 C-1.625 5.6875 -1.625 5.6875 -2 3 C-1.34 2.01 -0.68 1.02 0 0 Z " fill="#F8F2F5" transform="translate(119,116)"/>
<path d="M0 0 C0.66 1.32 1.32 2.64 2 4 C0.02 4.99 0.02 4.99 -2 6 C-2.66 5.34 -3.32 4.68 -4 4 C-2.68 2.68 -1.36 1.36 0 0 Z " fill="#75B56A" transform="translate(37,33)"/>
<path d="M0 0 C0.66 0 1.32 0 2 0 C1.8125 1.8125 1.8125 1.8125 1 4 C-1.5625 5.75 -1.5625 5.75 -4 7 C-2.92598892 4.08482708 -2.22189824 2.22189824 0 0 Z " fill="#D9EFF7" transform="translate(195,183)"/>
<path d="M0 0 C2.1875 0.3125 2.1875 0.3125 4 1 C4 1.66 4 2.32 4 3 C2.02 3.99 2.02 3.99 0 5 C-0.99 4.34 -1.98 3.68 -3 3 C-1.75 1.4375 -1.75 1.4375 0 0 Z " fill="#DDF0E6" transform="translate(107,87)"/>
<path d="M0 0 C0.66 0 1.32 0 2 0 C3.60080151 4.00200378 2.29279692 7.04556236 1 11 C0.67 11 0.34 11 0 11 C-1.125 3.375 -1.125 3.375 0 0 Z " fill="#529483" transform="translate(141,79)"/>
<path d="M0 0 C0.66 0.33 1.32 0.66 2 1 C1.34 2.65 0.68 4.3 0 6 C-1.32 5.67 -2.64 5.34 -4 5 C-2.68 3.35 -1.36 1.7 0 0 Z " fill="#227B60" transform="translate(91,128)"/>
<path d="M0 0 C0.928125 0.20625 1.85625 0.4125 2.8125 0.625 C2.4825 1.615 2.1525 2.605 1.8125 3.625 C-0.8275 2.965 -3.4675 2.305 -6.1875 1.625 C-3.1875 -0.375 -3.1875 -0.375 0 0 Z " fill="#4C9677" transform="translate(107.1875,83.375)"/>
<path d="M0 0 C0.66 0.66 1.32 1.32 2 2 C1.625 5.625 1.625 5.625 1 9 C-0.61949011 6.42786866 -1.04408751 5.32330841 -0.625 2.25 C-0.41875 1.5075 -0.2125 0.765 0 0 Z " fill="#387A6D" transform="translate(199,54)"/>
</svg>
